[img]http://img534.imageshack.us/img534/9874/wantedbluray2008.jpg[/img]
 
http://www.imdb.com/title/tt0493464/

Source: Wanted.2008.720p.BluRay.DTS.x264-ESiR

Subs: Danish, Dutch, English, Farsi-Persian, Finnish, Greek, Hebrew, Hungarian, Indonesian, Italian, Norwegian, Polsih, Portuguese, Romanian, Serbian, Spanish, Swedish, Turkish and Vietnamese.

Sample and Screens included.

General
Complete name                    : Wanted 2008-720p MP4 AAC BRRip-CC.mp4
Format                           : MPEG-4
Format profile                   : Base Media
Codec ID                         : isom
File size                        : 1.76 GiB
Duration                         : 1h 50mn
Overall bit rate                 : 2 291 Kbps
Encoded date                     : UTC 2011-12-16 13:10:23
Tagged date                      : UTC 2011-12-16 13:10:23
Writing application              : Yamb 2.1.0.0

Video
ID                               : 1
Format                           : AVC
Format/Info                      : Advanced Video Codec
Format profile                   : Main@L3.1
Format settings, CABAC           : Yes
Format settings, ReFrames        : 5 frames
Codec ID                         : avc1
Codec ID/Info                    : Advanced Video Coding
Duration                         : 1h 50mn
Bit rate mode                    : Variable
Bit rate                         : 1 903 Kbps
Nominal bit rate                 : 1 976 Kbps
Maximum bit rate                 : 16.5 Mbps
Width                            : 1 280 pixels
Height                           : 544 pixels
Display aspect ratio             : 2.35:1
Frame rate mode                  : Variable
Frame rate                       : 23.976 fps
Minimum frame rate               : 23.810 fps
Maximum frame rate               : 24.390 fps
Resolution                       : 8 bits
Colorimetry                      : 4:2:0
Scan type                        : Progressive
Bits/(Pixel*Frame)               : 0.114
Stream size                      : 1.46 GiB (83%)
Writing library                  : x264 core 65
Encoding settings                : cabac=1 / ref=5 / deblock=1:0:0 / analyse=0x1:0x111 / me=hex / subme=6 / psy_rd=1.0:0.0 / mixed_ref=0 / me_range=16 / chroma_me=1 / trellis=0 / 8x8dct=0 / cqm=0 / deadzone=21,11 / chroma_qp_offset=-2 / threads=3 / nr=0 / decimate=1 / mbaff=0 / bframes=5 / b_pyramid=0 / b_adapt=1 / b_bias=0 / direct=1 / wpredb=0 / keyint=240 / keyint_min=24 / scenecut=40(pre) / rc=abr / bitrate=1976 / ratetol=1.0 / qcomp=0.60 / qpmin=10 / qpmax=51 / qpstep=4 / ip_ratio=1.40 / pb_ratio=1.30 / aq=1:1.00
Encoded date                     : UTC 2011-12-11 21:49:03
Tagged date                      : UTC 2011-12-16 13:12:31
Color primaries                  : BT.709-5, BT.1361, IEC 61966-2-4, SMPTE RP177
Transfer characteristics         : BT.709-5, BT.1361
Matrix coefficients              : BT.709-5, BT.1361, IEC 61966-2-4 709, SMPTE RP177

Audio
ID                               : 2
Format                           : AAC
Format/Info                      : Advanced Audio Codec
Format version                   : Version 4
Format profile                   : LC
Format settings, SBR             : No
Codec ID                         : 40
Duration                         : 1h 50mn
Bit rate mode                    : Variable
Bit rate                         : 384 Kbps
Maximum bit rate                 : 633 Kbps
Channel(s)                       : 6 channels
Channel positions                : Front: L C R, Rear: L R, LFE
Sampling rate                    : 48.0 KHz
Stream size                      : 302 MiB (17%)
Language                         : English
Encoded date                     : UTC 2011-12-16 13:12:08
Tagged date                      : UTC 2011-12-16 13:12:31

Enjoy...

[img]http://img266.imageshack.us/img266/8559/wanted2008720pmp4aacbrr.png[/img]

[img]http://img835.imageshack.us/img835/8559/wanted2008720pmp4aacbrr.png[/img]

[img]http://img217.imageshack.us/img217/8559/wanted2008720pmp4aacbrr.png[/img]

[img]http://img62.imageshack.us/img62/8559/wanted2008720pmp4aacbrr.png[/img]

[img]http://img515.imageshack.us/img515/8559/wanted2008720pmp4aacbrr.png[/img]